<svg width="74" height="14" viewBox="0 0 74 14" fill="none" xmlns="http://www.w3.org/2000/svg">
    <path d="M0.82 11H1.98V8.6H3.02C4.42 8.6 5.5 7.93 5.5 6.48C5.5 4.96 4.45 4.46 3.02 4.46H0.82V11ZM1.98 7.67V5.39H2.92C3.87 5.39 4.36 5.66 4.36 6.48C4.36 7.28 3.9 7.67 2.92 7.67H1.98ZM6.69891 11H10.5689V10.02H7.85891V4.46H6.69891V11ZM12.7891 8.32L13.0191 7.52C13.2291 6.83 13.4191 6.09 13.5991 5.36H13.6391C13.8291 6.08 14.0291 6.83 14.2291 7.52L14.4591 8.32H12.7891ZM15.2291 11H16.4591L14.3291 4.46H12.9691L10.8291 11H12.0191L12.5291 9.23H14.7191L15.2291 11ZM18.1698 11H19.3298V8.57L21.2998 4.46H20.0898L19.3798 6.13C19.1898 6.62 18.9798 7.07 18.7698 7.57H18.7298C18.5298 7.07 18.3398 6.62 18.1498 6.13L17.4398 4.46H16.1998L18.1698 8.57V11Z"
          fill="#E6152B"/>
    <path fill-rule="evenodd" clip-rule="evenodd"
          d="M26.2632 11C26.1179 11 26 10.8609 26 10.6893V4.93261C25.9998 4.59953 26.1503 4.29165 26.3946 4.12502C26.639 3.95838 26.9401 3.95832 27.1845 4.12487L30.6066 6.46421C30.8501 6.63095 31 6.93811 31 7.2704C31 7.6027 30.8501 7.90986 30.6066 8.07659L27.4478 10.2513C27.3662 10.3125 27.2627 10.316 27.1783 10.2604C27.0938 10.2048 27.042 10.099 27.0433 9.9849C27.0447 9.87079 27.0989 9.76672 27.1845 9.71382L30.3433 7.53913C30.4245 7.48355 30.4745 7.38117 30.4745 7.2704C30.4745 7.15964 30.4245 7.05725 30.3433 7.00167L26.9213 4.66233C26.8397 4.60672 26.7391 4.60684 26.6576 4.66263C26.5761 4.71843 26.5261 4.8214 26.5265 4.93261V10.6893C26.5265 10.8609 26.4086 11 26.2632 11Z"
          fill="#E6152B" stroke="#F51E38" stroke-width="0.3"/>
    <path fill-rule="evenodd" clip-rule="evenodd"
          d="M72.2471 13C71.4664 12.9991 70.7803 12.4096 70.5644 11.5541L64.067 9.46197C63.3482 10.3639 62.1844 10.5949 61.2407 10.023C60.2969 9.4511 59.8135 8.22197 60.0668 7.03791C60.3201 5.85385 61.2454 5.01657 62.3141 5.00444C62.9143 5.00359 63.4917 5.26602 63.9268 5.73737L67.8941 2.62576C68.0514 1.68189 68.7753 0.999127 69.6178 1C70.5859 1 71.3707 1.89493 71.3707 2.99889C71.3707 4.10285 70.5859 4.99778 69.6178 4.99778C69.2951 4.99778 69.0335 4.69947 69.0335 4.33148C69.0335 3.9635 69.2951 3.66519 69.6178 3.66519C69.9273 3.66063 70.18 3.38157 70.194 3.02891C70.2079 2.67626 69.9782 2.37243 69.6703 2.33617C69.3623 2.29992 69.0831 2.54382 69.0335 2.89228C68.9796 3.23432 68.8041 3.53573 68.5485 3.72515L64.1313 7.18323C63.9918 7.29207 63.8178 7.32668 63.6542 7.27813C63.4906 7.22957 63.3535 7.10262 63.2782 6.93004C62.9971 6.43371 62.463 6.20769 61.9661 6.37477C61.4691 6.54186 61.128 7.06214 61.128 7.65297C61.128 8.2438 61.4691 8.76409 61.9661 8.93117C62.463 9.09825 62.9971 8.87223 63.2782 8.3759C63.4076 8.10118 63.6868 7.96553 63.9502 8.04942L70.8507 10.2415C71.2479 10.3692 71.5566 10.7263 71.6628 11.181C71.7466 11.5074 72.0325 11.7095 72.3261 11.6499C72.6197 11.5902 72.8268 11.2879 72.8066 10.9486C72.7863 10.6093 72.5451 10.3418 72.2471 10.3282C71.9244 10.3282 71.6628 10.0298 71.6628 9.66185C71.6628 9.29387 71.9244 8.99556 72.2471 8.99556C73.2152 8.99556 74 9.89049 74 10.9944C74 12.0984 73.2152 12.9933 72.2471 12.9933V13Z"
          fill="#F51E38"/>
</svg>
